<svg xmlns="http://www.w3.org/2000/svg" width="1024" height="1024"><defs><linearGradient id="a" x1="653.27" x2="-1448.58" y1="371.6" y2="1038.88" gradientTransform="matrix(.5 0 0 .5 685.98 125.33)" gradientUnits="userSpaceOnUse"><stop offset="0" stop-color="#f36e32"/><stop offset="1" stop-color="#ef8a26"/></linearGradient><linearGradient id="b" x1="671.85" x2="-1272.1" y1="724.56" y2="926.6" gradientTransform="matrix(.5 0 0 .5 685.98 125.33)" gradientUnits="userSpaceOnUse"><stop offset="0" stop-color="#ef3c27"/><stop offset="1" stop-color="#ea5a24"/></linearGradient></defs><path d="M503.54 12.06c80.74-1.34 160.5 19.19 232.3 54.71l.67 4.67-212.27 288.21C402.49 518.58 222.57 614.96 68.32 737.92-104.26 414.68 142.2 18.04 503.54 12.06" style="fill:#3d3e46"/><path d="M956.12 286.93c216.36 429.32-235.73 883.41-667.52 671.15l-2-2c98.71-124.31 206.11-302.53 319.74-406.3 81.84-74.74 255.01-186.4 349.78-262.86Z" style="fill:#000001"/><path d="M959.45 65.43 64.97 959.42C-2.27 892.46 8.39 791.25 82.99 735.26c153.32-120.08 329.93-216.61 449.24-374.27 63.88-84 122.16-172.9 186.91-256.19 7.39-9.51 19.92-27.32 25.37-33.36 58.62-64.97 153.15-68.12 214.94-6Z" style="fill:url(#a)"/><path d="M64.97 959.42 959.45 65.43c68.01 68.36 57.32 169.07-19.36 225.5-151.12 118.38-325.08 213.29-443.9 367.6l-205.6 281.54c-54.88 76.31-158.29 86.4-225.62 19.35" style="fill:url(#b)"/></svg>